#!OML:ASF H:\Terrain\Patient Classification 1\Walking\steve\steve.ASF
:FULLY-SPECIFIED
:DEGREES
139
root 7.51734 15.8761 -3.87998 7.47964 5.9983 4.97783
lowerback 0.275035 -0.507371 -5.78427
upperback -3.3384 -0.78605 0.631937
thorax -3.52389 -0.208917 3.92421
lowerneck -11.2214 -0.194499 -3.47293
upperneck 9.60149 0.227899 0.61663
head 4.7123 0.023083 0.770562
rclavicle -7.20594e-016 2.10712e-014
rhumerus -78.3343 -29.6972 -39.4502
rradius 14.6663
rwrist 26.7997
rhand -14.3879 -41.5224
rfingers 7.12502
rthumb 11.755 -71.1725
lclavicle -7.20594e-016 2.10712e-014
lhumerus -8.01509 -9.59569 87.5799
lradius 55.0112
lwrist 28.7659
lhand -23.6434 -14.0804
lfingers 7.12502
lthumb 2.82179 15.8806
rfemur -44.457 3.70221 12.8675
rtibia 21.7311
rfoot -18.5802 0.613129
rtoes -9.27964
lfemur 18.7308 -1.96926 -26.9025
ltibia 9.54166e-015
lfoot -5.995 -6.34171
ltoes -0.289715
140
root 7.51428 15.8408 -3.62183 7.39744 5.65085 5.3833
lowerback 0.235295 -0.394588 -6.06767
upperback -3.29845 -0.63879 0.601165
thorax -3.47579 -0.129978 4.04666
lowerneck -11.0568 -0.358748 -3.40604
upperneck 9.51632 0.0627939 -0.00782997
head 4.66341 -0.0942736 0.554036
rclavicle 1.05977e-014 -1.27222e-014
rhumerus -79.7685 -29.7886 -37.3214
rradius 14.6296
rwrist 27.7633
rhand -14.4494 -41.1462
rfingers 7.12502
rthumb 11.6958 -70.7997
lclavicle 1.05977e-014 -1.27222e-014
lhumerus -8.0394 -10.0355 87.4716
lradius 56.267
lwrist 28.9648
lhand -24.0877 -14.5299
lfingers 7.12502
lthumb 2.39269 15.4364
rfemur -44.544 3.78932 12.6179
rtibia 22.8243
rfoot -18.3695 1.21388
rtoes -7.69333
lfemur 19.7849 -1.81951 -27.2782
ltibia 4.13472e-014
lfoot -5.00988 -6.35121
ltoes -0.226971
141
root 7.51407 15.7932 -3.36363 7.23677 5.45935 5.28128
lowerback 0.257062 -0.317 -5.75293
upperback -3.26972 -0.525977 0.703001
thorax -3.47054 -0.082127 3.97198
lowerneck -11.1102 -0.606015 -3.7085
upperneck 9.46387 -0.229775 0.0784897
head 4.66182 -0.242929 0.608515
rclavicle 1.39957e-014 3.97569e-015
rhumerus -80.874 -29.7628 -35.6704
rradius 14.6
rwrist 28.1972
rhand -14.2894 -40.8867
rfingers 7.12502
rthumb 11.85 -70.5314
lclavicle 1.39957e-014 3.97569e-015
lhumerus -8.28639 -10.6272 87.2926
lradius 57.6501
lwrist 29.5203
lhand -24.6712 -14.9067
lfingers 7.12502
lthumb 1.82915 15.0652
rfemur -44.4542 3.89702 12.953
rtibia 23.9763
rfoot -17.9983 1.7554
rtoes -9.28596
lfemur 20.9434 -1.76313 -27.111
ltibia 4.13472e-014
lfoot -3.6923 -6.35015
ltoes 1.83138
142
root 7.51372 15.748 -3.10607 6.97671 5.48558 4.91874
lowerback 0.464015 -0.334621 -5.08215
upperback -3.30961 -0.542748 0.852606
thorax -3.62714 -0.102579 3.75235
lowerneck -10.6378 -0.353121 -3.90284
upperneck 8.92245 0.0852749 0.33045
head 4.4103 -0.0722193 0.739574
rclavicle -2.76159e-014 1.03368e-014
rhumerus -81.2371 -29.2665 -35.4483
rradius 14.658
rwrist 27.4698
rhand -13.7403 -40.8027
rfingers 7.12502
rthumb 12.3795 -70.4161
lclavicle -2.76159e-014 1.03368e-014
lhumerus -8.75873 -10.8148 87.1964
lradius 58.959
lwrist 29.9889
lhand -25.3554 -15.2692
lfingers 7.12502
lthumb 1.16834 14.7073
rfemur -44.0941 4.05962 13.4777
rtibia 25.086
rfoot -17.1919 2.90846
rtoes -7.16228
lfemur 22.1594 -1.88737 -26.6487
ltibia -9.22361e-014
lfoot -2.67911 -6.16881
ltoes -1.6111
143
root 7.51118 15.713 -2.84234 6.80673 5.39384 4.78588
lowerback 0.400684 -0.323885 -4.60105
upperback -3.23292 -0.511283 0.880389
thorax -3.515 -0.105322 3.50791
lowerneck -10.467 -0.114764 -3.81753
upperneck 8.47617 0.392606 0.216436
head 4.23875 0.0811386 0.710214
rclavicle 5.48405e-015 6.36111e-015
rhumerus -81.2337 -28.8811 -35.7692
rradius 14.7251
rwrist 26.5149
rhand -13.3326 -40.7903
rfingers 7.12502
rthumb 12.7726 -70.3796
lclavicle 5.48405e-015 6.36111e-015
lhumerus -9.2401 -10.8071 87.068
lradius 60.2868
lwrist 30.179
lhand -25.8809 -15.7864
lfingers 7.12502
lthumb 0.660788 14.1923
rfemur -43.7022 3.79697 14.1644
rtibia 26.1691
rfoot -14.9667 3.44846
rtoes -4.78775
lfemur 23.2267 -1.9299 -26.4436
ltibia 2.22639e-014
lfoot -1.65396 -5.74657
ltoes -8.31707
144
root 7.50512 15.7 -2.57378 6.77473 5.22382 4.64268
lowerback 0.209619 -0.305283 -4.18302
upperback -3.19468 -0.46563 0.951546
thorax -3.37157 -0.0977224 3.34283
lowerneck -10.8719 -0.0712376 -3.65477
upperneck 8.67142 0.492276 -0.206612
head 4.36542 0.107399 0.561275
rclavicle -1.36381e-014 -3.18055e-015
rhumerus -81.0771 -28.5129 -36.2497
rradius 14.7802
rwrist 25.6961
rhand -12.9584 -40.7008
rfingers 7.12502
rthumb 13.1333 -70.2672
lclavicle -1.36381e-014 -3.18055e-015
lhumerus -9.86952 -10.6608 87.0183
lradius 61.5185
lwrist 30.3457
lhand -26.2886 -16.2033
lfingers 7.12502
lthumb 0.266997 13.7762
rfemur -43.5418 3.3657 15.0509
rtibia 27.4114
rfoot -11.8538 2.51681
rtoes -4.95935
lfemur 24.0874 -1.90663 -26.2489
ltibia -1.59028e-014
lfoot 0.0798065 -5.14569
ltoes -13.8433
